<mxfile host="65bd71144e">
    <diagram id="0Xx3CoSnx-sXEL8sKgbB" name="ページ1">
        <mxGraphModel dx="935" dy="809" grid="1" gridSize="10" guides="1" tooltips="1" connect="1" arrows="1" fold="1" page="1" pageScale="1" pageWidth="827" pageHeight="1169" math="0" shadow="0">
            <root>
                <mxCell id="0"/>
                <mxCell id="1" parent="0"/>
                <mxCell id="2" value="" style="ellipse;whiteSpace=wrap;html=1;fillColor=none;" vertex="1" parent="1">
                    <mxGeometry x="70" y="230" width="390" height="240" as="geometry"/>
                </mxCell>
                <mxCell id="3" value="" style="ellipse;whiteSpace=wrap;html=1;fillColor=none;" vertex="1" parent="1">
                    <mxGeometry x="270" y="230" width="390" height="240" as="geometry"/>
                </mxCell>
                <mxCell id="4" value="純粋数学 (主に組合せ論)" style="text;html=1;align=center;verticalAlign=middle;resizable=0;points=[];autosize=1;strokeColor=none;fillColor=none;fontStyle=0" vertex="1" parent="1">
                    <mxGeometry x="160" y="200" width="150" height="30" as="geometry"/>
                </mxCell>
                <mxCell id="5" value="TCS" style="text;html=1;align=center;verticalAlign=middle;resizable=0;points=[];autosize=1;strokeColor=none;fillColor=none;fontStyle=0" vertex="1" parent="1">
                    <mxGeometry x="440" y="200" width="50" height="30" as="geometry"/>
                </mxCell>
                <mxCell id="7" value="マトロイド理論" style="text;html=1;align=center;verticalAlign=middle;resizable=0;points=[];autosize=1;strokeColor=none;fillColor=none;" vertex="1" parent="1">
                    <mxGeometry x="304" y="290" width="110" height="30" as="geometry"/>
                </mxCell>
                <mxCell id="8" value="誤り訂正符号" style="text;html=1;align=center;verticalAlign=middle;resizable=0;points=[];autosize=1;strokeColor=none;fillColor=none;" vertex="1" parent="1">
                    <mxGeometry x="310" y="320" width="100" height="30" as="geometry"/>
                </mxCell>
                <mxCell id="9" value="擬似ランダムネス" style="text;html=1;align=center;verticalAlign=middle;resizable=0;points=[];autosize=1;strokeColor=none;fillColor=none;" vertex="1" parent="1">
                    <mxGeometry x="304" y="350" width="120" height="30" as="geometry"/>
                </mxCell>
                <mxCell id="11" value="グラフ理論" style="text;html=1;align=center;verticalAlign=middle;resizable=0;points=[];autosize=1;strokeColor=none;fillColor=none;" vertex="1" parent="1">
                    <mxGeometry x="324" y="380" width="80" height="30" as="geometry"/>
                </mxCell>
            </root>
        </mxGraphModel>
    </diagram>
</mxfile>